<svg width="130" height="131" viewBox="0 0 130 131" fill="none" xmlns="http://www.w3.org/2000/svg">
<path d="M117.461 124.963C119.148 122.818 120.263 120.075 120.731 116.81C122.914 99.033 100.698 78.9493 90.0261 69.306C89.3796 68.7081 88.6862 68.0722 87.9834 67.4362C84.1699 63.9624 80.2158 60.3746 78.22 55.9327C77.0862 53.408 77.1799 50.2948 78.473 47.6182C79.6911 45.0935 81.7524 43.3661 84.273 42.7492L84.3948 42.7207C85.1818 42.4929 85.9876 42.379 86.7935 42.379C90.5133 42.379 94.6173 44.8468 98.9931 49.7158C105.065 56.2554 109.731 63.9719 114.763 72.666C122.493 86.1722 126.269 97.4195 126.344 107.091C126.438 113.261 124.554 118.49 120.909 122.23C119.879 123.293 118.717 124.214 117.461 124.973V124.963Z" fill="#FCFAE2"/>
<path d="M86.8028 39.0475V45.6915C89.5201 45.6915 92.9026 47.8555 96.5756 51.9368L96.6131 51.9748L96.6506 52.0127C102.46 58.2676 107.014 65.8132 111.933 74.3175L111.961 74.3649C119.11 86.8556 122.839 97.6758 123.055 106.569C119.157 92.8067 105.674 78.9967 92.2467 66.8478C91.5721 66.2118 90.8787 65.5854 90.176 64.9495C86.4468 61.5611 82.9237 58.353 81.209 54.5469C80.4875 52.9334 80.5625 50.8263 81.4151 49.0514C81.8649 48.1118 82.933 46.4698 85.0413 45.9572L85.1631 45.9288L85.2849 45.8908C85.7909 45.7484 86.2781 45.6725 86.7841 45.6725V39.0285M86.8028 39.0475C85.7253 39.0475 84.629 39.1899 83.514 39.5126C75.7932 41.4014 72.1951 50.5036 75.2404 57.2994C77.9108 63.2315 83.2048 67.4552 87.8429 71.7738C98.5808 81.474 119.41 100.666 117.489 116.326C116.346 124.299 110.996 127.08 104.849 127.08C100.061 127.08 94.786 125.381 90.6538 123.132C86.3531 120.92 82.7456 117.854 79.0633 114.741C78.6229 114.4 78.1075 113.916 77.7046 113.621C77.5735 113.526 77.4985 113.469 77.4704 113.469C77.4516 113.469 77.4704 113.507 77.5266 113.583C82.324 119.487 88.9579 125.485 96.1165 128.532C99.9488 130.203 103.772 130.99 107.407 130.99C119.794 130.99 129.839 121.803 129.623 107.044C129.53 94.5436 123.589 81.436 117.639 71.0335L117.602 70.967C112.861 62.7949 107.894 54.433 101.429 47.4664C97.6063 43.2142 92.5278 39.0475 86.8028 39.0475Z" fill="#29361D"/>
<path d="M23.1811 127.678C15.8351 127.678 9.85711 124.707 6.35277 119.316C6.21222 119.098 6.07167 118.88 5.94049 118.661C7.82384 120.189 10.4193 121.471 13.9986 121.993C14.8606 122.107 15.6852 122.154 16.5097 122.154C33.3568 122.154 51.9561 101.036 60.895 90.8894C61.4853 90.2345 62.1131 89.5322 62.7409 88.8203C66.1703 84.9573 69.7121 80.952 74.0972 78.9303C75.2403 78.3988 76.5053 78.133 77.8358 78.133C81.6212 78.133 86.0251 80.5154 87.112 85.0617L87.1401 85.1851C88.3957 89.684 86.1375 94.5246 80.2345 99.9727C73.7786 106.133 66.1609 110.85 57.5781 115.947C44.2447 123.777 33.1507 127.602 23.5934 127.678H23.1624H23.1811Z" fill="#FCFAE2"/>
<path d="M77.8449 81.455C80.3467 81.455 83.242 82.9641 83.926 85.84L83.9541 85.9634L83.9916 86.0868C84.863 89.2095 82.8578 93.0535 78.0323 97.5144L77.9948 97.5524L77.9574 97.5903C71.7826 103.475 64.3335 108.088 55.9474 113.071L55.9006 113.099C43.5604 120.341 32.8694 124.128 24.0804 124.337C37.7511 120.379 51.4218 106.626 63.3122 93.1294C63.94 92.446 64.5584 91.7437 65.1862 91.0318C68.5312 87.2542 71.6982 83.6855 75.4556 81.9486C76.1771 81.6164 76.9829 81.4455 77.8449 81.4455M77.8449 74.811C76.1021 74.811 74.3593 75.1622 72.7383 75.9025C66.8821 78.6076 62.7125 83.9702 58.4492 88.6684C49.2854 99.071 31.5576 118.823 16.5095 118.823C15.8255 118.823 15.1415 118.785 14.4669 118.699C0.468212 116.64 2.66077 101.074 7.74863 91.5159C9.93182 87.1593 12.9583 83.5051 16.0316 79.775C16.3689 79.3289 16.8468 78.8069 17.1373 78.3988C17.2591 78.2374 17.3059 78.152 17.2778 78.152C17.2591 78.152 17.231 78.171 17.1748 78.209C11.3467 83.0685 5.42489 89.7884 2.41715 97.0398C-4.78831 114.029 4.64719 130.981 23.1715 130.981C23.3214 130.981 23.4807 130.981 23.6306 130.981C35.9708 130.886 48.9106 124.869 59.1801 118.842L59.2456 118.804C67.3131 114.001 75.568 108.971 82.4455 102.421C87.4303 97.8181 92.2933 91.4304 90.2975 84.2739C88.8827 78.3323 83.3544 74.8015 77.8355 74.8015L77.8449 74.811Z" fill="#29361D"/>
<path d="M42.8298 88.621C39.11 88.621 35.006 86.1532 30.6302 81.2937C24.5491 74.7541 19.8923 67.0281 14.8607 58.3435C7.13049 44.8373 3.35442 33.5995 3.27946 23.9183C3.18576 17.7489 5.06911 12.5191 8.714 8.77954C9.74469 7.7165 10.9066 6.79584 12.1621 6.03653C10.4755 8.18158 9.36053 10.9246 8.89203 14.1896C6.70884 31.967 28.9249 52.0507 39.5972 61.694C40.2437 62.2919 40.9371 62.9278 41.6399 63.5638C45.4534 67.0376 49.4075 70.6254 51.4033 75.0673C52.5371 77.592 52.4434 80.7052 51.1503 83.3818C49.9322 85.9065 47.8708 87.6339 45.3503 88.2508L45.2285 88.2888C44.4415 88.5166 43.6356 88.6305 42.8298 88.6305V88.621Z" fill="#FCFAE2"/>
<path d="M6.56804 24.4213C10.4659 38.1838 23.9492 51.9938 37.3763 64.1427C38.0509 64.7787 38.7443 65.4051 39.447 66.041C43.1763 69.4294 46.6994 72.6375 48.4141 76.4436C49.1355 78.0571 49.0606 80.1642 48.2079 81.9391C47.7582 82.8787 46.69 84.5207 44.5818 85.0333L44.46 85.0617L44.3381 85.0997C43.8322 85.2421 43.3449 85.318 42.839 85.318C40.1217 85.318 36.7391 83.154 33.0661 79.0727L33.0287 79.0347L32.9912 78.9967C27.1818 72.7419 22.6281 65.1963 17.7089 56.692L17.6808 56.6445C10.5315 44.1539 6.80229 33.3337 6.58678 24.4403M22.2252 0C9.83814 0 -0.215769 9.18765 -0.000260995 23.9467C0.0934381 36.4469 6.03396 49.5545 11.9839 59.957L12.0213 60.0235C16.7625 68.1956 21.7286 76.5575 28.1938 83.5241C32.0167 87.7763 37.0952 91.943 42.8202 91.943C43.8978 91.943 44.994 91.8006 46.1091 91.4779C53.8299 89.5891 57.4279 80.4869 54.3827 73.6911C51.7123 67.7589 46.4183 63.5353 41.7802 59.2167C31.0516 49.5165 10.2129 30.325 12.1431 14.6642C13.2863 6.69142 18.6365 3.91045 24.7831 3.91045C29.5712 3.91045 34.8464 5.6094 38.9786 7.85886C43.2793 10.0704 46.8868 13.1361 50.5691 16.2492C51.0095 16.5909 51.5249 17.075 51.9278 17.3692C52.0589 17.4641 52.1339 17.5211 52.162 17.5211C52.1808 17.5211 52.162 17.4831 52.1058 17.4072C47.3084 11.5036 40.6745 5.505 33.5159 2.45827C29.6836 0.787784 25.8513 0 22.2252 0Z" fill="#29361D"/>
<path d="M51.7781 52.867C47.9927 52.867 43.5888 50.4846 42.5019 45.9383L42.4738 45.8149C41.237 41.3729 43.5513 36.3994 49.3794 31.0273C55.8353 24.8674 63.4624 20.1502 72.0358 15.0533C85.3692 7.22295 96.4726 3.39792 106.021 3.32199H106.452C113.798 3.32199 119.776 6.29279 123.28 11.6839C123.42 11.9022 123.561 12.1205 123.692 12.3388C121.809 10.8107 119.213 9.52935 115.634 9.00733C114.772 8.89343 113.947 8.84597 113.123 8.84597C96.2758 8.84597 77.6765 29.9643 68.7376 40.1106C68.1473 40.7655 67.5196 41.4678 66.8918 42.1797C63.4624 46.0427 59.9206 50.048 55.5354 52.0697C54.3923 52.6012 53.1274 52.867 51.7968 52.867H51.7781Z" fill="#FCFAE2"/>
<path d="M105.543 6.65346C91.8719 10.6114 78.2012 24.3549 66.3108 37.8611C65.683 38.5445 65.0646 39.2468 64.4368 39.9587C61.0918 43.7363 57.9248 47.305 54.1674 49.042C53.4459 49.3741 52.6401 49.545 51.7781 49.545C49.2763 49.545 46.381 48.0359 45.697 45.16L45.6689 45.0366L45.6314 44.9132C44.76 41.7905 46.7652 37.9465 51.5907 33.4856L51.6282 33.4476L51.6657 33.4097C57.8404 27.525 65.2895 22.9122 73.6849 17.9292L73.7318 17.9007C86.072 10.6588 96.763 6.87176 105.552 6.66295M106.452 0C106.292 0 106.142 0 105.992 0C93.6522 0.0949138 80.7124 6.11245 70.443 12.1395L70.3774 12.1774C62.3099 16.9801 54.055 22.0105 47.1775 28.5596C42.1927 33.1629 37.3297 39.5506 39.3255 46.7071C40.7403 52.6487 46.2686 56.1795 51.7875 56.1795C53.5303 56.1795 55.2731 55.8283 56.8941 55.088C62.7503 52.3829 66.9199 47.0203 71.1832 42.3221C80.347 31.9195 98.0748 12.1679 113.123 12.1679C113.807 12.1679 114.491 12.2059 115.166 12.2913C129.164 14.351 126.972 29.9168 121.884 39.4746C119.701 43.8312 116.674 47.4854 113.601 51.2155C113.263 51.6616 112.786 52.1836 112.495 52.5917C112.373 52.7531 112.326 52.8385 112.355 52.8385C112.373 52.8385 112.401 52.8195 112.458 52.7816C118.286 47.922 124.207 41.2021 127.215 33.9507C134.411 16.9516 124.976 0 106.452 0Z" fill="#29361D"/>
</svg>
